<svg id="Layer_1" data-name="Layer 1" xmlns="http://www.w3.org/2000/svg" xmlns:xlink="http://www.w3.org/1999/xlink" viewBox="0 0 512 512"><defs><linearGradient id="linear-gradient" x1="256" x2="256" y2="512" gradientUnits="userSpaceOnUse"><stop offset="0" stop-color="#e9ebf5"/><stop offset="0.76" stop-color="#b0c7e1"/><stop offset="1" stop-color="#7697c6"/></linearGradient><linearGradient id="linear-gradient-2" x1="255.99" y1="413.8" x2="255.99" y2="98.2" gradientUnits="userSpaceOnUse"><stop offset="0" stop-color="#000013"/><stop offset="1" stop-color="#005c92"/></linearGradient></defs><title>cut</title><path d="M256,512c141,0,256-115,256-256S397,0,256,0,0,115,0,256,115,512,256,512Z" fill-rule="evenodd" fill="url(#linear-gradient)"/><path d="M212.09,328.7l33.49-44.05,33.49,44a57.85,57.85,0,0,0-7,27.65c0,31.73,25.37,57.46,56.68,57.46s56.68-25.73,56.68-57.46-25.38-57.45-56.68-57.45a55.89,55.89,0,0,0-18.64,3.19l-38-52.34,61.73-81.21c14.2-18.67,24.25-44.69,7-65.39-6.83-8.18-10.73-6.3-20,6.45L245.58,213.2,170.33,109.59c-9.26-12.75-13.16-14.63-20-6.45-17.29,20.7-7.23,46.72,7,65.39L219,249.74l-38,52.34a55.86,55.86,0,0,0-18.64-3.19c-31.3,0-56.68,25.72-56.68,57.45s25.38,57.46,56.68,57.46,56.68-25.73,56.68-57.46a57.81,57.81,0,0,0-7-27.64ZM162.39,328a28.39,28.39,0,1,1-28,28.38,28.2,28.2,0,0,1,28-28.38Zm166.37,0a28.39,28.39,0,1,1-28,28.38,28.19,28.19,0,0,1,28-28.38Zm-83.19-92.79a13.34,13.34,0,1,1-13.16,13.33A13.25,13.25,0,0,1,245.58,235.17Z" fill="#fff" fill-rule="evenodd"/><path d="M222.51,328.7,256,284.65l33.49,44a57.85,57.85,0,0,0-7,27.65c0,31.73,25.38,57.46,56.68,57.46s56.68-25.73,56.68-57.46-25.38-57.45-56.68-57.45a55.81,55.81,0,0,0-18.63,3.19l-38-52.34,61.75-81.21c14.19-18.67,24.24-44.69,7-65.39-6.83-8.18-10.73-6.3-20,6.45L256,213.2,180.75,109.59c-9.26-12.75-13.15-14.63-20-6.45-17.29,20.7-7.23,46.72,7,65.39l61.74,81.21-38,52.34a55.86,55.86,0,0,0-18.64-3.19c-31.3,0-56.68,25.72-56.68,57.45s25.38,57.46,56.68,57.46,56.68-25.73,56.68-57.46a57.76,57.76,0,0,0-7-27.64ZM172.81,328a28.39,28.39,0,1,1-28,28.38,28.19,28.19,0,0,1,28-28.38Zm166.37,0a28.39,28.39,0,1,1-28,28.38,28.2,28.2,0,0,1,28-28.38ZM256,235.17a13.34,13.34,0,1,1-13.15,13.33A13.25,13.25,0,0,1,256,235.17Z" fill-rule="evenodd" fill="url(#linear-gradient-2)"/></svg>