<svg id="Layer_1" data-name="Layer 1" xmlns="http://www.w3.org/2000/svg" viewBox="0 0 512 512"><defs><style>.cls-1{fill:#141f38;}</style></defs><title>excel-glyph</title><path class="cls-1" d="M153.6,268.8h51.2v25.6H153.6Zm76.8,76.8h51.2V320H230.4Zm-76.8,51.2h51.2V371.2H153.6Zm0-51.2h51.2V320H153.6Zm76.8-51.2h51.2V268.8H230.4Zm0,102.4h51.2V371.2H230.4ZM460.8,153.6V448a64,64,0,0,1-64,64H115.2a64,64,0,0,1-64-64V64a64,64,0,0,1,64-64H307.34ZM384,243.2H128V422.4H384V243.2Zm51.2-76.8L294.4,25.6v76.8a64,64,0,0,0,64,64Zm-128,230.4h51.2V371.2H307.2Zm0-102.4h51.2V268.8H307.2Zm0,51.2h51.2V320H307.2Z"/></svg>