<svg id="Layer_1" data-name="Layer 1" xmlns="http://www.w3.org/2000/svg" xmlns:xlink="http://www.w3.org/1999/xlink" viewBox="0 0 512 512"><defs><linearGradient id="linear-gradient" x1="256" x2="256" y2="512" gradientUnits="userSpaceOnUse"><stop offset="0" stop-color="#e9ebf5"/><stop offset="0.76" stop-color="#b0c7e1"/><stop offset="1" stop-color="#7697c6"/></linearGradient><linearGradient id="linear-gradient-2" x1="256" y1="381.06" x2="256" y2="130.93" gradientUnits="userSpaceOnUse"><stop offset="0" stop-color="#000013"/><stop offset="1" stop-color="#005c92"/></linearGradient></defs><title>folder</title><path d="M256,512c141,0,256-115,256-256S397,0,256,0,0,115,0,256,115,512,256,512Z" fill-rule="evenodd" fill="url(#linear-gradient)"/><path d="M213.83,153.23H319.19a38.66,38.66,0,0,1,38.5,36.8,38,38,0,0,0-6.53-.56H162.84c-21.81,0-41.39,17.84-43.51,39.65l-9.23,94.61a38.45,38.45,0,0,1-12.53-28.37V191.78a38.54,38.54,0,0,1,15-30.44,26.23,26.23,0,0,1-.24-3.54h0a26.94,26.94,0,0,1,26.86-26.87h48.22a27,27,0,0,1,26.46,22.3ZM172.39,200c-21.24,0-40.31,17.38-42.39,38.62L119.87,342.44c-2.07,21.24,13.61,38.62,34.86,38.62H338.19c21.24,0,40.32-17.38,42.39-38.62l10.13-103.81C392.79,217.39,377.1,200,355.86,200Z" fill="#fff" fill-rule="evenodd"/><path d="M225.61,153.23H331a38.66,38.66,0,0,1,38.5,36.8,38,38,0,0,0-6.53-.56H174.61c-21.81,0-41.38,17.84-43.51,39.65l-9.23,94.61a38.46,38.46,0,0,1-12.54-28.37V191.78a38.55,38.55,0,0,1,15-30.44,26.22,26.22,0,0,1-.25-3.54h0a27,27,0,0,1,26.87-26.87h48.22a27,27,0,0,1,26.47,22.3ZM184.17,200c-21.24,0-40.31,17.38-42.39,38.62L131.65,342.44c-2.08,21.24,13.61,38.62,34.85,38.62H350c21.24,0,40.31-17.38,42.39-38.62l10.13-103.81c2.08-21.24-13.61-38.62-34.85-38.62Z" fill-rule="evenodd" fill="url(#linear-gradient-2)"/></svg>